<?xml version="1.0" encoding="UTF-8"?>
<svg width="832px" height="669px" viewBox="0 0 832 669" version="1.1" xmlns="http://www.w3.org/2000/svg" xmlns:xlink="http://www.w3.org/1999/xlink">
    <title>icon_iMac</title>
    <defs>
        <rect id="path-1" x="0" y="0" width="468.626817" height="279.741519"></rect>
        <rect id="path-3" x="0" y="0" width="232" height="260" rx="4"></rect>
        <filter x="-14.7%" y="-10.0%" width="129.3%" height="126.2%" filterUnits="objectBoundingBox" id="filter-4">
            <feOffset dx="0" dy="8" in="SourceAlpha" result="shadowOffsetOuter1"></feOffset>
            <feGaussianBlur stdDeviation="10" in="shadowOffsetOuter1" result="shadowBlurOuter1"></feGaussianBlur>
            <feComposite in="shadowBlurOuter1" in2="SourceAlpha" operator="out" result="shadowBlurOuter1"></feComposite>
            <feColorMatrix values="0 0 0 0 0.77254902   0 0 0 0 0.811764706   0 0 0 0 0.870588235  0 0 0 0.5 0" type="matrix" in="shadowBlurOuter1"></feColorMatrix>
        </filter>
    </defs>
    <g id="Page-1" stroke="none" stroke-width="1" fill="none" fill-rule="evenodd">
        <g id="Desktop-HD" transform="translate(-174.000000, 0.000000)">
            <g id="icon_iMac" transform="translate(174.000000, 0.000000)">
                <circle id="Cirlce" fill="#FAFAFC" cx="346.090468" cy="334.135703" r="334.135703"></circle>
                <path d="M533.03378,440.109947 C533.03378,440.109947 473.957429,465.316298 504.365029,487.227966 C534.77263,509.139633 608.747697,527.532615 622.469709,558.838601" id="Mouse-Wire" stroke="#C5CFDE" stroke-width="2"></path>
                <g id="Leg" transform="translate(291.696284, 438.739903)" stroke="#C5CFDE" stroke-width="2">
                    <rect id="Substrate" x="1" y="58.3828756" width="170.148627" height="9.95476575" rx="4.97738288"></rect>
                    <path d="M146.285158,1 L162.46183,58.7738288 L9.68679642,58.7738288 L25.8634685,1 L146.285158,1 Z" id="Leg-Form"></path>
                </g>
                <g id="Mouse" transform="translate(569.046850, 549.919225)">
                    <path d="M25.1050081,45.4281099 C43.0371567,45.4281099 72.9240711,45.4281099 72.9240711,45.4281099 C72.9240711,45.4281099 101.615509,45.4281099 101.615509,27.4959612 C101.615509,9.5638126 72.9240711,0 49.0145396,0 C25.1050081,0 1.80115024e-15,13.1502423 0,26.3004847 C0,39.450727 7.17285945,45.4281099 25.1050081,45.4281099 Z" id="Path-5" stroke="#C5CFDE" stroke-width="2" fill="#FFFFFF"></path>
                    <path d="M1.19547658,25.1050081 C1.19547658,25.1050081 24.3491934,31.8823141 49.0145396,32.2778675 C73.6798858,32.673421 92.0010612,27.0751126 99.2245557,21.5185784 C99.2245557,21.5185784 101.737743,26.1663393 100.420032,31.082391 C99.1023215,35.9984426 96.0203045,38.1630699 90.8562197,40.6462036 C78.4654785,46.6042518 68.5275982,44.2326333 50.2100162,44.2326333 C33.9660419,44.2326333 14.3457189,45.4281099 7.17285945,40.6462036 C1.33226763e-13,35.8642973 1.19547658,25.1050081 1.19547658,25.1050081 Z" id="Path-6" fill="#F5F6FA"></path>
                </g>
                <g id="Keyboard" transform="translate(74.119548, 564.264943)">
                    <g id="Group-2" transform="translate(17.932149, 0.000000)" fill="#FFFFFF" stroke="#C5CFDE" stroke-width="2">
                        <rect id="Rectangle-5" x="1" y="1" width="26.6914378" height="14.7366721" rx="7.36833603"></rect>
                        <rect id="Rectangle-5-Copy" x="35.6688207" y="1" width="26.6914378" height="14.7366721" rx="7.36833603"></rect>
                        <rect id="Rectangle-5-Copy-2" x="70.3376414" y="1" width="26.6914378" height="14.7366721" rx="7.36833603"></rect>
                        <rect id="Rectangle-5-Copy-4" x="240.095315" y="1" width="26.6914378" height="14.7366721" rx="7.36833603"></rect>
                        <rect id="Rectangle-5-Copy-5" x="274.764136" y="1" width="26.6914378" height="14.7366721" rx="7.36833603"></rect>
                        <rect id="Rectangle-5-Copy-6" x="390.725363" y="1" width="26.6914378" height="14.7366721" rx="7.36833603"></rect>
                        <rect id="Rectangle-5-Copy-7" x="356.056543" y="1" width="26.6914378" height="14.7366721" rx="7.36833603"></rect>
                        <rect id="Rectangle-5-Copy-8" x="321.387722" y="1" width="26.6914378" height="14.7366721" rx="7.36833603"></rect>
                        <rect id="Rectangle-5-Copy-3" x="105.006462" y="1" width="127.11147" height="14.7366721" rx="7.36833603"></rect>
                    </g>
                    <g id="Group-3" transform="translate(0.000000, 8.368336)">
                        <rect id="Rectangle-3" stroke="#C5CFDE" stroke-width="2" fill="#FFFFFF" x="1" y="1" width="452.281099" height="21.9095315" rx="10.9547658"></rect>
                        <rect id="Rectangle-4" fill="#C5CFDE" x="2.39095315" y="13.1502423" width="449.499192" height="2.39095315"></rect>
                    </g>
                </g>
                <g id="Сup" transform="translate(0.000000, 372.988691)">
                    <g id="Group" transform="translate(0.000000, 89.660743)" stroke="#C5CFDE" stroke-width="2">
                        <rect id="Rectangle-2" fill="#F5F6FA" x="1" y="1" width="36.2552504" height="60.1647819" rx="18.1276252"></rect>
                        <rect id="Rectangle-2-Copy" fill="#FFFFFF" x="8.17285945" y="8.17285945" width="21.9095315" height="45.819063" rx="10.9547658"></rect>
                    </g>
                    <path d="M101.19448,70.3376414 C102.024341,70.3376414 102.775519,70.6751327 103.319608,71.2189182 C103.864377,71.7633847 104.201939,72.5149093 104.201939,73.3428709 L104.201939,73.3428709 L104.201939,160.938969 C104.201939,165.0799 102.524483,168.828749 99.8098118,171.541858 C97.096486,174.253621 93.3470745,175.930533 89.2011613,175.930533 L89.2011613,175.930533 L35.1284025,175.930533 C30.9864664,175.930533 27.236607,174.251889 24.5220373,171.538882 C21.80705,168.825458 20.1276252,165.077302 20.1276252,160.938969 L20.1276252,160.938969 L20.1276252,73.3428709 C20.1276252,72.5134283 20.4647716,71.7626111 21.0087549,71.2189305 C21.5534076,70.6745808 22.3055138,70.3376414 23.1350843,70.3376414 L23.1350843,70.3376414 Z" id="Rectangle" stroke="#C5CFDE" stroke-width="2" fill="#F5F6FA"></path>
                    <path d="M63.3602585,0 C63.3602585,0 78.901454,2.39095315 78.901454,16.7366721 C78.901454,31.082391 49.0145396,25.1050081 49.0145396,43.0371567 C49.0145396,60.9693053 64.5557351,59.7738288 64.5557351,59.7738288" id="Path-7" stroke="#C5CFDE" stroke-width="4" stroke-linecap="round"></path>
                    <path d="M28.6914378,71.7285945 C28.6914378,71.7285945 35.8642973,111.179321 37.2573159,147.003866 C37.9669524,165.253731 41.0294017,174.53958 41.8416801,174.53958 C44.2326333,174.53958 21.5185784,176.930533 21.5185784,158.998384 L21.5185784,74.1195477 C21.5185784,74.1195477 21.5185784,71.7285945 23.9095315,71.7285945 C26.3004847,71.7285945 28.6914378,71.7285945 28.6914378,71.7285945 Z" id="Path-8" fill="#EAECF2"></path>
                </g>
                <g id="Monitor" transform="translate(117.156704, 72.924071)">
                    <rect id="Mac-Form" stroke="#C5CFDE" stroke-width="2" x="1" y="1" width="519.227787" height="366.206785" rx="18"></rect>
                    <rect id="Screen-Form" stroke="#C5CFDE" stroke-width="2" x="24.9095315" y="24.9095315" width="471.408724" height="282.523425"></rect>
                    <g id="Screen" transform="translate(26.300485, 26.300485)">
                        <mask id="mask-2" fill="white">
                            <use xlink:href="#path-1"></use>
                        </mask>
                        <g id="Mask"></g>
                        <g id="Terminal" opacity="0.5" mask="url(#mask-2)">
                            <rect id="Form" fill="#C5CFDE" x="0" y="0" width="234.313409" height="279.741519"></rect>
                            <g id="Lines" transform="translate(17.932149, 21.518578)">
                                <rect id="Rectangle-6" fill="#E0E4EC" x="0" y="19.1276252" width="47.819063" height="7.17285945" rx="3.58642973"></rect>
                                <rect id="Rectangle-6-Copy-16" fill="#7E8FA4" x="0" y="0" width="107.592892" height="7.17285945" rx="3.58642973"></rect>
                                <rect id="Rectangle-6-Copy" fill="#F5F6FA" x="0" y="38.2552504" width="95.638126" height="7.17285945" rx="3.58642973"></rect>
                                <rect id="Rectangle-6-Copy-7" fill="#F5F6FA" x="0" y="114.765751" width="47.819063" height="7.17285945" rx="3.58642973"></rect>
                                <rect id="Rectangle-6-Copy-9" fill="#7E8FA4" x="0" y="133.893376" width="71.7285945" height="7.17285945" rx="3.58642973"></rect>
                                <rect id="Rectangle-6-Copy-10" fill="#7E8FA4" x="0" y="176.930533" width="47.819063" height="7.17285945" rx="3.58642973"></rect>
                                <rect id="Rectangle-6-Copy-11" fill="#E0E4EC" x="0" y="196.058158" width="83.6833603" height="7.17285945" rx="3.58642973"></rect>
                                <rect id="Rectangle-6-Copy-15" fill="#F5F6FA" x="0" y="234.313409" width="59.7738288" height="7.17285945" rx="3.58642973"></rect>
                                <rect id="Rectangle-6-Copy-12" fill="#E0E4EC" x="95.638126" y="196.058158" width="59.7738288" height="7.17285945" rx="3.58642973"></rect>
                                <rect id="Rectangle-6-Copy-14" fill="#7E8FA4" x="23.9095315" y="215.185784" width="119.547658" height="7.17285945" rx="3.58642973"></rect>
                                <rect id="Rectangle-6-Copy-13" fill="#7E8FA4" x="155.411955" y="215.185784" width="23.9095315" height="7.17285945" rx="3.58642973"></rect>
                                <rect id="Rectangle-6-Copy-8" fill="#F5F6FA" x="59.7738288" y="114.765751" width="23.9095315" height="7.17285945" rx="3.58642973"></rect>
                                <path d="M23.9095315,60.383253 C23.9095315,58.7261903 25.2521077,57.3828756 26.9094495,57.3828756 L140.457271,57.3828756 C142.11408,57.3828756 143.457189,58.7320356 143.457189,60.383253 L143.457189,61.5553576 C143.457189,63.2124203 142.114613,64.5557351 140.457271,64.5557351 L26.9094495,64.5557351 C25.2526405,64.5557351 23.9095315,63.2065751 23.9095315,61.5553576 L23.9095315,60.383253 Z" id="Rectangle-6-Copy-2" fill="#F5F6FA"></path>
                                <path d="M23.9095315,98.6385034 C23.9095315,96.9814407 25.2606445,95.638126 26.9058388,95.638126 L164.370413,95.638126 C166.025228,95.638126 167.366721,96.987286 167.366721,98.6385034 L167.366721,99.810608 C167.366721,101.467671 166.015608,102.810985 164.370413,102.810985 L26.9058388,102.810985 C25.251024,102.810985 23.9095315,101.461825 23.9095315,99.810608 L23.9095315,98.6385034 Z" id="Rectangle-6-Copy-6" fill="#7E8FA4"></path>
                                <path d="M23.9095315,79.5108782 C23.9095315,77.8538155 25.2499988,76.5105008 26.9056149,76.5105008 L56.7777454,76.5105008 C58.4324365,76.5105008 59.7738288,77.8596608 59.7738288,79.5108782 L59.7738288,80.6829828 C59.7738288,82.3400455 58.4333615,83.6833603 56.7777454,83.6833603 L26.9056149,83.6833603 C25.2509237,83.6833603 23.9095315,82.3342003 23.9095315,80.6829828 L23.9095315,79.5108782 Z" id="Rectangle-6-Copy-3" fill="#E0E4EC"></path>
                                <path d="M71.7285945,79.5108782 C71.7285945,77.8538155 73.0711707,76.5105008 74.7285125,76.5105008 L188.276334,76.5105008 C189.933143,76.5105008 191.276252,77.8596608 191.276252,79.5108782 L191.276252,80.6829828 C191.276252,82.3400455 189.933676,83.6833603 188.276334,83.6833603 L74.7285125,83.6833603 C73.0717035,83.6833603 71.7285945,82.3342003 71.7285945,80.6829828 L71.7285945,79.5108782 Z" id="Rectangle-6-Copy-4" fill="#E0E4EC"></path>
                            </g>
                        </g>
                    </g>
                    <circle id="Apple-Logo" stroke="#C5CFDE" stroke-width="2" fill="#F5F6FA" cx="260.613893" cy="337.124394" r="10.9547658"></circle>
                    <circle id="Camera" fill="#7E8FA4" cx="260.613893" cy="13.1502423" r="2.39095315"></circle>
                </g>
                <g id="Tablet" transform="translate(580.933764, 202.004847)">
                    <g id="Form">
                        <use fill="black" fill-opacity="1" filter="url(#filter-4)" xlink:href="#path-3"></use>
                        <rect stroke="#C5CFDE" stroke-width="2" stroke-linejoin="square" fill="#F5F6FA" fill-rule="evenodd" x="1" y="1" width="230" height="258" rx="4"></rect>
                    </g>
                    <g id="Group-7-Copy" transform="translate(13.345719, 221.995153)">
                        <text id="TeachableHub-GUI" font-family="ProximaNova-Semibold, Proxima Nova" font-size="20" font-weight="500" fill="#333333">
                            <tspan x="28" y="18">TeachableHub GUI</tspan>
                        </text>
                        <path d="M18.5475191,5.16565416 L16.8431037,4.1552961 C16.3716089,3.87657663 15.7261555,3.983585 15.4105582,4.39170993 L7.05578559,15.1431474 L3.21633554,11.7927072 C2.81518478,11.4426488 2.16117596,11.4426488 1.7600252,11.7927072 L0.30086307,13.0660238 C-0.10028769,13.4160821 -0.10028769,13.9859639 0.30086307,14.3393404 L6.20500376,19.4915029 C6.53581055,19.7801766 7.05578559,20 7.52347794,20 C7.9911703,20 8.46266503,19.7445072 8.76685518,19.3587793 L18.8222408,6.41325558 C19.1416405,6.00513064 19.0190138,5.44437362 18.5475191,5.16565416 Z" id="Fill-1" fill="#2ECA8B"></path>
                    </g>
                    <g id="Group-7-Copy-2" transform="translate(13.345719, 175.995153)">
                        <text id="TeachableHub-CLI" font-family="ProximaNova-Semibold, Proxima Nova" font-size="20" font-weight="500" fill="#333333">
                            <tspan x="28" y="18">TeachableHub CLI</tspan>
                        </text>
                        <path d="M18.5475191,5.16565416 L16.8431037,4.1552961 C16.3716089,3.87657663 15.7261555,3.983585 15.4105582,4.39170993 L7.05578559,15.1431474 L3.21633554,11.7927072 C2.81518478,11.4426488 2.16117596,11.4426488 1.7600252,11.7927072 L0.30086307,13.0660238 C-0.10028769,13.4160821 -0.10028769,13.9859639 0.30086307,14.3393404 L6.20500376,19.4915029 C6.53581055,19.7801766 7.05578559,20 7.52347794,20 C7.9911703,20 8.46266503,19.7445072 8.76685518,19.3587793 L18.8222408,6.41325558 C19.1416405,6.00513064 19.0190138,5.44437362 18.5475191,5.16565416 Z" id="Fill-1" fill="#2ECA8B"></path>
                    </g>
                    <g id="Group-7-Copy-3" transform="translate(13.345719, 130.995153)">
                        <text id="Python-SDK" font-family="ProximaNova-Semibold, Proxima Nova" font-size="20" font-weight="500" fill="#333333">
                            <tspan x="28" y="18">Python SDK</tspan>
                        </text>
                        <path d="M18.5475191,5.16565416 L16.8431037,4.1552961 C16.3716089,3.87657663 15.7261555,3.983585 15.4105582,4.39170993 L7.05578559,15.1431474 L3.21633554,11.7927072 C2.81518478,11.4426488 2.16117596,11.4426488 1.7600252,11.7927072 L0.30086307,13.0660238 C-0.10028769,13.4160821 -0.10028769,13.9859639 0.30086307,14.3393404 L6.20500376,19.4915029 C6.53581055,19.7801766 7.05578559,20 7.52347794,20 C7.9911703,20 8.46266503,19.7445072 8.76685518,19.3587793 L18.8222408,6.41325558 C19.1416405,6.00513064 19.0190138,5.44437362 18.5475191,5.16565416 Z" id="Fill-1" fill="#2ECA8B"></path>
                    </g>
                    <g id="Group-7-Copy-4" transform="translate(13.345719, 84.995153)">
                        <text id="Jupiter-Notebook" font-family="ProximaNova-Semibold, Proxima Nova" font-size="20" font-weight="500" fill="#333333">
                            <tspan x="28" y="18">Jupiter Notebook</tspan>
                        </text>
                        <path d="M18.5475191,5.16565416 L16.8431037,4.1552961 C16.3716089,3.87657663 15.7261555,3.983585 15.4105582,4.39170993 L7.05578559,15.1431474 L3.21633554,11.7927072 C2.81518478,11.4426488 2.16117596,11.4426488 1.7600252,11.7927072 L0.30086307,13.0660238 C-0.10028769,13.4160821 -0.10028769,13.9859639 0.30086307,14.3393404 L6.20500376,19.4915029 C6.53581055,19.7801766 7.05578559,20 7.52347794,20 C7.9911703,20 8.46266503,19.7445072 8.76685518,19.3587793 L18.8222408,6.41325558 C19.1416405,6.00513064 19.0190138,5.44437362 18.5475191,5.16565416 Z" id="Fill-1" fill="#2ECA8B"></path>
                    </g>
                    <g id="Group-7-Copy-5" transform="translate(13.345719, 38.995153)">
                        <text id="GitHub-Actions" font-family="ProximaNova-Semibold, Proxima Nova" font-size="20" font-weight="500" fill="#333333">
                            <tspan x="28" y="18">GitHub Actions</tspan>
                        </text>
                        <path d="M18.5475191,5.16565416 L16.8431037,4.1552961 C16.3716089,3.87657663 15.7261555,3.983585 15.4105582,4.39170993 L7.05578559,15.1431474 L3.21633554,11.7927072 C2.81518478,11.4426488 2.16117596,11.4426488 1.7600252,11.7927072 L0.30086307,13.0660238 C-0.10028769,13.4160821 -0.10028769,13.9859639 0.30086307,14.3393404 L6.20500376,19.4915029 C6.53581055,19.7801766 7.05578559,20 7.52347794,20 C7.9911703,20 8.46266503,19.7445072 8.76685518,19.3587793 L18.8222408,6.41325558 C19.1416405,6.00513064 19.0190138,5.44437362 18.5475191,5.16565416 Z" id="Fill-1" fill="#2ECA8B"></path>
                    </g>
                    <g id="Dots" transform="translate(2.390953, 2.390953)">
                        <path d="M0,1.9973889 C0,0.894261472 0.890994997,1.42108547e-14 1.99695302,1.42108547e-14 L225.003047,1.42108547e-14 C226.105934,1.42108547e-14 227,0.893644867 227,1.9973889 L227,23.9095315 L0,23.9095315 L0,1.9973889 Z" id="Substrate" fill="#E0E4EC"></path>
                        <circle id="3" fill="#7E8FA4" cx="34.6688207" cy="11.9547658" r="3.58642973"></circle>
                        <circle id="2" fill="#7E8FA4" cx="25.1050081" cy="11.9547658" r="3.58642973"></circle>
                        <circle id="1" fill="#7E8FA4" cx="15.5411955" cy="11.9547658" r="3.58642973"></circle>
                    </g>
                </g>
                <g id="Text" transform="translate(437.000000, 204.000000)">
                    <g id="Group-5" fill="#7E8FA4">
                        <path d="M2.08166817e-16,6 C-4.03753107e-14,2.6862915 2.6888701,0 5.99187487,0 L114.008125,0 C117.317346,0 120,2.69303423 120,6 L120,6 C120,9.3137085 117.31113,12 114.008125,12 L5.99187487,12 C2.68265376,12 4.07090652e-14,9.30696577 2.08166817e-16,6 L2.08166817e-16,6 Z" id="Rectangle-6-Copy-17"></path>
                        <path d="M2.08166817e-16,20 C-4.03753107e-14,18.3431458 1.34765625,17 2.99624738,17 L117.003753,17 C118.658534,17 120,18.3465171 120,20 L120,20 C120,21.6568542 118.652344,23 117.003753,23 L2.99624738,23 C1.34146565,23 4.07090652e-14,21.6534829 2.08166817e-16,20 L2.08166817e-16,20 Z" id="Rectangle-6-Copy-18"></path>
                    </g>
                    <g id="Group-4" transform="translate(0.000000, 33.000000)" fill="#C5CFDE">
                        <path d="M2.08166817e-16,2.5 C-4.03753107e-14,1.11928813 1.11132681,0 2.50637054,0 L117.493629,0 C118.87786,0 120,1.10966206 120,2.5 L120,2.5 C120,3.88071187 118.888673,5 117.493629,5 L2.50637054,5 C1.12214032,5 4.10745849e-14,3.89033794 2.08166817e-16,2.5 L2.08166817e-16,2.5 Z" id="Rectangle-6-Copy-20"></path>
                        <path d="M1.38777878e-16,12.5 C-2.69168738e-14,11.1192881 1.11563357,10 2.50412328,10 L77.4958767,10 C78.8788658,10 80,11.1096621 80,12.5 L80,12.5 C80,13.8807119 78.8843664,15 77.4958767,15 L2.50412328,15 C1.12113418,15 2.73830566e-14,13.8903379 1.38777878e-16,12.5 L1.38777878e-16,12.5 Z" id="Rectangle-6-Copy-19"></path>
                    </g>
                    <path d="M6.9388939e-17,63 C-1.34584369e-14,60.2385763 2.23628439,58 5.00532213,58 L34.9946779,58 C37.759041,58 40,60.2441952 40,63 L40,63 C40,65.7614237 37.7637156,68 34.9946779,68 L5.00532213,68 C2.24095905,68 1.35696884e-14,65.7558048 6.9388939e-17,63 L6.9388939e-17,63 Z" id="Rectangle-6-Copy-21" fill="#5694ED"></path>
                </g>
            </g>
        </g>
    </g>
</svg>