<?xml version="1.0" encoding="UTF-8"?>
<svg width="82px" height="110px" viewBox="0 0 82 110" version="1.1" xmlns="http://www.w3.org/2000/svg" xmlns:xlink="http://www.w3.org/1999/xlink">
  <path fill="#FF1154" d="M88,0C68.1,0,53.44,0,44,0C34.56,0,19.9,0,0,0l6.29,16.75c10.02-1.09,19.44-1.78,28.29-2.07v29.99h18.86V14.68 c8.85,0.29,18.27,0.98,28.29,2.07L88,0z" />
  <path fill="#FF1154" d="M62.86,25.12l0,27.84H25.14l0-27.84H6.29c2.51,9.87,3.77,19.74,3.77,29.61c0,9.87-1.26,20.23-3.77,31.1 l18.86,9.64V69.66h37.71v25.81l18.86-9.64c-2.51-12.72-3.77-23.08-3.77-31.1s1.26-17.88,3.77-29.61H62.86z" />
  <polygon fill="#FF1154" points="34.57,99.23 44,104 53.43,99.23 53.43,77.2 34.57,77.2 "/>
</svg>
