<svg xmlns="http://www.w3.org/2000/svg" xmlns:xlink="http://www.w3.org/1999/xlink" viewBox="0 0 240 60">
    <path fill="#fff" d="M79.46,30.3c0,0.2,0,0.4,0.1,0.71s0,0.4,0,0.61c0,1.11-0.2,2.12-0.5,3.03 c-0.3,0.91-0.81,1.82-1.41,2.63s-1.31,1.51-2.02,2.12C74.81,40,74.01,40.5,73,41.01s-1.92,0.81-2.93,1.01 c-1.01,0.2-2.02,0.3-3.03,0.3c-0.91,0-1.92,0-2.73-0.1c-0.91-0.1-1.72-0.1-2.52-0.1c-0.61,0-1.21,0-1.72,0.1 c-0.5,0.1-1.01,0.3-1.51,0.5c-0.4-1.41-0.81-2.63-1.21-3.84s-0.81-2.12-1.21-2.93c-0.4-0.91-0.81-1.82-1.21-2.52 c1.21,0.61,2.42,1.11,3.64,1.51c1.21,0.4,2.42,0.61,3.43,0.81c1.11,0.2,2.12,0.3,3.03,0.4s1.62,0.1,2.22,0.1 c0.71,0,1.31,0,2.02-0.1s1.41-0.2,2.02-0.4c-0.2-0.2-0.3-0.4-0.5-0.61c-0.2-0.2-0.3-0.3-0.5-0.4c-0.2-0.1-0.4-0.2-0.5-0.3 c-0.3-0.1-0.71-0.3-1.21-0.4c-0.5-0.1-1.11-0.3-1.72-0.4c-0.61-0.1-1.31-0.3-2.02-0.5c-0.71-0.2-1.41-0.4-2.12-0.71 c-0.71-0.3-1.31-0.5-2.02-0.91c-0.71-0.4-1.21-0.71-1.72-1.11c-0.4-0.3-0.71-0.71-1.01-1.11c-0.3-0.4-0.5-0.81-0.61-1.21 c-0.1-0.4-0.3-0.81-0.3-1.21c-0.1-0.4-0.1-0.81-0.1-1.21c-0.4,0.1-0.71,0.3-1.01,0.4c-0.3,0.1-0.5,0.2-0.71,0.3l-0.2,0.2 c0.4-1.11,0.91-2.12,1.51-2.93c0.71-0.81,1.41-1.62,2.22-2.22c0.81-0.61,1.72-1.11,2.63-1.62c0.91-0.4,1.82-0.81,2.73-1.01 c2.12-0.61,4.44-1.01,6.97-1.11c0.81,0,1.62,0,2.52-0.1c0.71-0.1,1.62-0.1,2.63-0.2c1.01-0.1,2.02-0.3,3.03-0.5 c-0.3,0.5-0.61,1.01-0.81,1.62c-0.2,0.61-0.4,1.11-0.5,1.72s-0.2,1.11-0.2,1.72c0,0.61-0.1,1.11-0.1,1.51c0,0.3,0,0.61,0,0.81 c0,0.2,0,0.5,0,0.71c0,0.2,0,0.4,0.1,0.61c-1.82-0.81-3.53-1.41-5.25-1.72c-1.72-0.3-3.33-0.5-4.95-0.5c-0.5,0-1.01,0-1.51,0.1 c-0.5,0.1-1.01,0.1-1.51,0.1c0.1,0.5,0.3,0.91,0.61,1.21c0.3,0.3,0.61,0.61,0.91,0.81c0.3,0.2,0.71,0.4,1.11,0.5 c0.81,0.2,1.62,0.5,2.52,0.91c0.91,0.4,1.82,0.81,2.73,1.31c0.91,0.5,1.82,1.11,2.63,1.82c0.81,0.71,1.62,1.51,2.22,2.42 c0.4-0.3,0.81-0.71,1.11-1.11C78.85,31.21,79.16,30.81,79.46,30.3z"/>
    <path fill="#fff" d="M109.35,33.64c-0.5,0.3-0.91,0.5-1.41,0.71c-0.5,0.2-1.01,0.4-1.41,0.71 c0.5,1.11,1.11,2.12,1.72,3.13c0.61,1.01,1.21,1.92,1.92,2.93c-1.72,0-3.33,0.2-4.85,0.5c-1.51,0.3-3.03,0.91-4.54,1.62 c0.1-0.3,0.1-0.5,0.2-0.91c0-0.3,0-0.61,0-1.01c0-0.61-0.1-1.31-0.2-2.02s-0.3-1.51-0.5-2.32c-0.5,0.1-1.11,0.1-1.62,0.2 c-0.5,0-1.11,0.1-1.62,0.1c-0.91,0-1.82-0.1-2.63-0.2c-0.81-0.1-1.72-0.4-2.42-0.71c-0.2,0.91-0.4,1.92-0.5,2.83 c-0.2,1.01-0.3,1.92-0.5,3.03c-0.5-0.3-1.11-0.5-1.72-0.81c-0.5-0.2-1.21-0.4-1.92-0.5c-0.71-0.2-1.62-0.2-2.52-0.2 c-0.71,0-1.51,0.1-2.32,0.2s-1.62,0.4-2.52,0.71c0.81-0.91,1.51-1.72,2.22-2.63c0.71-0.91,1.31-1.72,1.92-2.52 c0.61-0.81,1.01-1.62,1.51-2.32c0.5-0.71,0.81-1.31,1.11-1.82c-0.3-0.4-0.61-0.81-0.81-1.31s-0.5-1.01-0.71-1.51 c0.4,0.2,0.81,0.4,1.21,0.61c0.4,0.2,0.81,0.4,1.21,0.5l0,0c0.5-1.11,1.11-2.22,1.72-3.33c0.61-1.11,1.21-2.12,1.92-3.13 c-0.1-0.3-0.3-0.71-0.5-1.21c-0.2-0.4-0.4-0.91-0.71-1.41c-0.2-0.5-0.5-0.91-0.81-1.41c-0.3-0.5-0.5-0.91-0.81-1.31 c1.01,0.3,2.02,0.5,3.13,0.71c1.01,0.2,2.12,0.3,3.23,0.3c0.61-0.61,1.21-1.11,1.82-1.62c0.61-0.5,1.31-0.91,2.02-1.31 c-0.2,0.5-0.5,0.91-0.71,1.41c-0.2,0.5-0.5,0.91-0.71,1.41c0.61,0,1.21-0.1,1.82-0.2c0.61-0.1,1.21-0.2,1.82-0.3 c0.4,1.72,0.91,3.43,1.41,5.15c0.5,1.72,1.11,3.33,1.72,4.95c0.5-0.3,1.01-0.61,1.51-0.91c0.5-0.3,1.01-0.71,1.51-1.11 c0.3,1.21,0.71,2.32,1.11,3.43C108.34,31.72,108.84,32.63,109.35,33.64z M98.34,31.51c-0.91-2.22-2.02-4.44-3.23-6.77 c-0.4,1.11-0.71,2.22-1.11,3.43c-0.3,1.21-0.71,2.42-1.01,3.64c0.3,0,0.5,0,0.81,0c0.3,0,0.5,0,0.81,0c0.61,0,1.31,0,1.92-0.1 C97.03,31.82,97.63,31.72,98.34,31.51z"/>
    <path fill="#fff" d="M137.12,30.3c0,0.2,0,0.4,0.1,0.71c0,0.2,0,0.4,0,0.61c0,1.11-0.2,2.12-0.5,3.03 c-0.3,0.91-0.81,1.82-1.41,2.63s-1.31,1.51-2.02,2.12c-0.81,0.61-1.62,1.11-2.63,1.62c-0.91,0.4-1.92,0.81-2.93,1.01 c-1.01,0.2-2.02,0.3-3.03,0.3c-0.91,0-1.92,0-2.73-0.1c-0.81-0.1-1.72-0.1-2.52-0.1c-0.61,0-1.21,0-1.72,0.1 c-0.5,0.1-1.01,0.3-1.51,0.5c-0.4-1.41-0.81-2.63-1.21-3.84c-0.4-1.11-0.81-2.12-1.21-2.93c-0.4-0.91-0.81-1.82-1.21-2.52 c1.21,0.61,2.42,1.11,3.64,1.51c1.21,0.4,2.42,0.61,3.43,0.81c1.11,0.2,2.12,0.3,3.03,0.4c0.91,0.1,1.62,0.1,2.22,0.1 c0.71,0,1.31,0,2.02-0.1c0.71-0.1,1.41-0.2,2.02-0.4c-0.2-0.2-0.3-0.4-0.5-0.61c-0.2-0.2-0.3-0.3-0.5-0.4 c-0.2-0.1-0.4-0.2-0.5-0.3c-0.3-0.1-0.71-0.3-1.21-0.4c-0.5-0.1-1.11-0.3-1.72-0.4c-0.61-0.1-1.31-0.3-2.02-0.5 c-0.71-0.2-1.41-0.4-2.12-0.71c-0.71-0.3-1.31-0.5-2.02-0.91c-0.71-0.4-1.21-0.71-1.72-1.11c-0.4-0.3-0.71-0.71-1.01-1.11 c-0.3-0.4-0.5-0.81-0.61-1.21c-0.1-0.4-0.3-0.81-0.3-1.21c-0.1-0.4-0.1-0.81-0.1-1.21c-0.4,0.1-0.71,0.3-1.01,0.4 c-0.3,0.1-0.5,0.2-0.71,0.3l-0.61,0.3c0.4-1.11,0.91-2.12,1.51-2.93c0.71-0.81,1.41-1.62,2.22-2.22c0.81-0.61,1.72-1.11,2.63-1.62 c0.91-0.4,1.82-0.81,2.73-1.01c2.12-0.61,4.44-1.01,6.97-1.11c0.81,0,1.62,0,2.52-0.1c0.71-0.1,1.62-0.1,2.63-0.2 c1.01-0.1,2.02-0.3,3.03-0.5c-0.3,0.5-0.61,1.01-0.81,1.62s-0.4,1.11-0.5,1.72c-0.1,0.61-0.2,1.11-0.2,1.72 c0,0.61-0.1,1.11-0.1,1.51c0,0.3,0,0.61,0,0.81c0,0.3,0,0.5,0,0.71s0,0.4,0.1,0.61c-1.82-0.81-3.53-1.41-5.25-1.72 c-1.72-0.3-3.33-0.5-4.95-0.5c-0.5,0-1.01,0-1.51,0.1c-0.5,0.1-1.01,0.1-1.51,0.1c0.1,0.5,0.3,0.91,0.61,1.21 c0.3,0.3,0.61,0.61,0.91,0.81c0.3,0.2,0.71,0.4,1.11,0.5c0.81,0.2,1.62,0.5,2.52,0.91c0.91,0.3,1.82,0.81,2.73,1.31 c0.91,0.5,1.82,1.11,2.63,1.82c0.81,0.71,1.62,1.51,2.22,2.42c0.4-0.3,0.81-0.71,1.11-1.11C136.41,31.21,136.81,30.81,137.12,30.3 z"/>
    <path fill="#fff" d="M149.84,41.41c-0.81-0.2-1.62-0.4-2.42-0.4c-0.81-0.1-1.62-0.1-2.42-0.1s-1.62,0-2.42,0.1 c-0.81,0.1-1.62,0.2-2.52,0.4c0.91-2.22,1.51-4.44,2.02-6.77c0.5-2.32,0.71-4.64,0.71-7.07c0-1.51-0.1-2.93-0.3-4.44 c-0.2-1.51-0.5-3.03-0.81-4.54c0.71,0.2,1.31,0.4,2.02,0.5c0.61,0.2,1.31,0.3,1.92,0.4c0.71,0.1,1.31,0.2,2.02,0.3 c0.71,0.1,1.41,0.1,2.12,0.1c0.1,1.62,0.1,3.33,0.1,4.95s0.1,3.23,0.1,4.85c1.01-0.1,2.02-0.2,2.93-0.3 c1.01-0.1,1.92-0.3,2.93-0.4c0.1-1.92,0.3-3.74,0.61-5.65s0.61-3.74,1.11-5.65c0.61,0.2,1.11,0.4,1.72,0.61 c0.5,0.2,1.11,0.3,1.62,0.4c0.61,0.1,1.11,0.2,1.72,0.2c0.61,0.1,1.21,0.1,1.92,0.1c0.1,0,0.3,0,0.4,0c0.2,0,0.3,0,0.5,0 c-0.71,1.41-1.21,2.83-1.72,4.24c-0.4,1.41-0.81,2.93-0.91,4.34c0.5-0.1,1.01-0.2,1.62-0.4c0.5-0.1,1.01-0.3,1.62-0.4 c-0.1,0.71-0.2,1.41-0.2,2.12c0,0.71-0.1,1.41-0.1,2.12s0,1.41,0.1,2.22c0.1,0.81,0.1,1.41,0.2,2.22c-0.5,0-1.11,0-1.62-0.1 c-0.5,0-1.01-0.1-1.51-0.1c0.1,0.91,0.3,1.92,0.5,2.83c0.2,0.91,0.5,1.92,0.81,2.83c-0.4,0-0.71-0.1-1.11-0.1 c-0.3,0-0.71,0-1.01,0c-0.5,0-1.01,0-1.51,0.1c-0.5,0-1.01,0.1-1.51,0.2c-0.5,0.1-1.01,0.2-1.51,0.3c-0.5,0.1-1.01,0.3-1.51,0.4 c-0.1-1.31-0.2-2.63-0.3-3.94s-0.1-2.63-0.1-3.94c-1.01-0.3-1.92-0.5-2.93-0.81c-0.91-0.3-1.92-0.61-2.83-1.01 c0,1.51,0,3.03-0.1,4.64C149.94,38.28,149.84,39.79,149.84,41.41z"/>
    <path fill="#fff" d="M179.12,17.98c-0.3,2.12-0.61,4.24-0.71,6.46c-0.2,2.22-0.3,4.34-0.3,6.56 c0,1.72,0,3.33,0.1,4.95c0.1,1.62,0.2,3.23,0.4,4.85c-0.4,0-0.81-0.1-1.21-0.1s-0.81,0-1.21,0c-0.91,0-1.92,0.1-2.83,0.2 c-0.91,0.1-1.92,0.3-2.93,0.5c0.3-1.82,0.61-3.64,0.81-5.45s0.3-3.74,0.3-5.65c0-1.62-0.1-3.33-0.2-4.95 c-0.2-1.62-0.4-3.23-0.71-4.85c0.71-0.1,1.41-0.2,2.12-0.3c0.71-0.1,1.41-0.3,2.12-0.5c0.71-0.2,1.41-0.4,2.12-0.71 C177.61,18.59,178.31,18.29,179.12,17.98z"/>
    <path fill="#fff" d="M208.61,28.18c0.1,1.21,0.1,2.42-0.2,3.53c-0.3,1.11-0.71,2.22-1.31,3.23 c-0.61,1.01-1.31,2.02-2.22,2.83c-0.91,0.81-1.82,1.62-2.93,2.22c-1.11,0.61-2.22,1.11-3.43,1.41c-1.21,0.3-2.42,0.5-3.74,0.5 c-0.81,0-1.72-0.1-2.63-0.3c-0.91-0.2-1.72-0.61-2.63-1.11c-0.91,0.1-1.82,0.3-2.83,0.5c-1.01,0.2-2.02,0.5-3.03,0.91 c0.91-2.73,1.62-5.45,2.12-8.28c0.5-2.73,0.81-5.55,0.81-8.38c-0.4,0.2-0.71,0.3-1.11,0.61c-0.4,0.2-0.71,0.4-1.11,0.71 c0-0.3,0.1-0.5,0.1-0.81c0-0.2,0-0.5,0-0.81c0-1.21-0.2-2.42-0.5-3.53c-0.4-1.11-0.91-2.12-1.62-3.13c0.4-0.1,0.81-0.2,1.31-0.3 c0.5-0.1,1.11-0.2,1.62-0.3c0.61-0.1,1.21-0.2,1.82-0.2c0.61-0.1,1.21-0.1,1.82-0.2c0.61-0.1,1.11-0.1,1.62-0.1 c0.5,0,0.91,0,1.31,0c1.51,0,2.93,0.1,4.24,0.4c1.31,0.2,2.52,0.61,3.64,1.01c1.11,0.4,2.12,1.01,3.03,1.62 c0.91,0.61,1.62,1.31,2.22,2.12c0.61,0.81,1.11,1.62,1.41,2.52c0.3,0.91,0.5,1.82,0.5,2.73c0,0.2,0,0.3,0,0.5c0,0.2,0,0.3,0,0.5 c0.3-0.1,0.5-0.2,0.71-0.2S208.4,28.28,208.61,28.18z M201.64,29.39c-0.2-0.61-0.5-1.21-0.81-1.72c-0.4-0.5-0.81-0.91-1.21-1.31 c-0.5-0.4-1.01-0.71-1.51-0.91c-0.5-0.3-1.11-0.5-1.62-0.61c-0.5-0.2-1.11-0.3-1.62-0.4c-0.5-0.1-1.01-0.1-1.51-0.2 c-0.1,2.52-0.1,4.95-0.1,7.47c0,2.22,0,4.54,0.1,6.77c1.01-0.3,1.92-0.71,2.83-1.21c0.91-0.5,1.62-1.11,2.22-1.92 c0.61-0.71,1.11-1.62,1.41-2.63c0.3-1.01,0.4-2.02,0.3-3.23c0.2,0,0.5,0,0.71,0C201.13,29.39,201.34,29.39,201.64,29.39z"/>
    <path fill="#fff" d="M233.24,18.59c-0.4,0.4-0.81,0.71-1.11,1.11c-0.4,0.4-0.71,0.81-1.01,1.21 c1.11,0.2,2.12,0.61,3.03,1.11c0.91,0.5,1.82,1.11,2.52,1.92c0.71,0.81,1.31,1.62,1.72,2.73c0.4,1.01,0.61,2.12,0.61,3.43 c0,1.41-0.2,2.63-0.61,3.84c-0.4,1.11-1.01,2.12-1.72,3.03c-0.71,0.91-1.62,1.62-2.63,2.32c-1.01,0.61-2.12,1.21-3.23,1.62 c-1.21,0.4-2.42,0.71-3.74,0.91c-1.31,0.2-2.63,0.3-3.94,0.3c-0.5,0-0.91,0-1.41,0c-0.5,0-1.01,0-1.41-0.1 c-0.5,0-0.91-0.1-1.31-0.2c-0.4-0.1-0.71-0.1-1.01-0.3c0.4-0.3,0.71-0.61,1.01-0.91s0.61-0.61,0.81-0.91 c-1.11-0.2-2.12-0.5-3.03-1.01c-0.91-0.5-1.82-1.01-2.52-1.72c-0.71-0.71-1.31-1.51-1.72-2.52s-0.61-2.12-0.61-3.33 c0-1.51,0.2-2.83,0.71-4.04c0.5-1.21,1.11-2.22,2.02-3.13c0.81-0.91,1.82-1.72,2.93-2.42c1.11-0.71,2.32-1.21,3.64-1.62 c1.31-0.4,2.63-0.71,4.04-0.91c1.41-0.2,2.83-0.3,4.24-0.3c0.61,0,1.21,0,1.82,0C231.93,18.49,232.64,18.59,233.24,18.59z  M232.03,28.69c0-0.61-0.1-1.11-0.2-1.62c-0.1-0.5-0.3-0.91-0.61-1.31c-0.3-0.4-0.61-0.71-0.91-1.01c-0.3-0.3-0.71-0.5-1.11-0.71 c-0.2,0.4-0.3,0.71-0.4,1.11c-0.1,0.4-0.2,0.71-0.4,1.11c-0.61-0.2-1.11-0.3-1.62-0.4s-1.01-0.1-1.41-0.1 c-0.81,0-1.51,0.1-2.32,0.4c-0.81,0.3-1.51,0.71-2.12,1.21c-0.61,0.5-1.11,1.11-1.51,1.82c-0.4,0.71-0.61,1.51-0.61,2.42 c0,0.5,0.1,0.91,0.2,1.31c0.1,0.4,0.3,0.81,0.61,1.21c0.2,0.4,0.5,0.81,0.91,1.11c0.3,0.4,0.71,0.71,1.11,1.01 c0.1-0.4,0.3-0.81,0.3-1.31c0.1-0.4,0.1-0.91,0.1-1.31c0.71,0.3,1.31,0.61,1.92,0.71c0.61,0.1,1.21,0.2,1.72,0.2 c0.81,0,1.62-0.1,2.32-0.4c0.71-0.3,1.41-0.71,2.02-1.21c0.61-0.5,1.11-1.11,1.41-1.92C231.93,30.5,232.03,29.6,232.03,28.69z"/>

    <path fill="#fff" d="M25.64,6.98c0-1.51-1.21-3.23-2.73-3.23c-1.51,0-2.73,1.72-2.73,3.23"/>
    <path fill="#fff" d="M23.01,56.25c3.23,0,5.96-2.22,6.97-5.35H15.94C17.06,54.03,19.78,56.25,23.01,56.25z"/>
    <ellipse fill="#fff" cx="16.55" cy="20.31" rx="2.12" ry="2.73"/>
    <path fill="#fff" d="M22.91,6.47c-8.89,0-16.06,7.17-16.06,16.06L7.97,40.2c0.5,4.85,2.63,8.58,7.47,9.09h15.05 c4.85-0.5,6.97-4.24,7.47-9.09l1.11-17.67C39.07,13.64,31.8,6.47,22.91,6.47z M22.91,25.76c-7.37,0-13.43,3.84-13.43-3.64 S15.54,9.6,22.91,9.6s13.43,5.05,13.43,12.52S30.38,25.76,22.91,25.76z"/>
    <ellipse fill="#fff" cx="29.37" cy="20.31" rx="2.12" ry="2.73"/>
    <path fill="#fff" d="M4.23,29.5h-0.1c-0.81,0-1.51,0.71-1.51,1.51v15.15c0,0.81,0.71,1.51,1.51,1.51h0.1 c0.81,0,1.51-0.71,1.51-1.51V31.01C5.85,30.2,5.14,29.5,4.23,29.5z"/>
    <circle fill="#fff" cx="4.23" cy="46.06" r="3.23"/>
    <path fill="#fff" d="M10.79,35.35H6.76c-2.32,0-4.14-1.82-4.14-4.14v-0.3c0-2.32,1.82-4.14,4.14-4.14h4.04 c2.32,0,4.14,1.82,4.14,4.14v0.3C14.93,33.53,13.12,35.35,10.79,35.35z"/>
    <path fill="#fff" d="M41.79,29.5h-0.1c-0.81,0-1.51,0.71-1.51,1.51v15.15c0,0.81,0.71,1.51,1.51,1.51h0.1 c0.81,0,1.51-0.71,1.51-1.51V31.01C43.31,30.2,42.6,29.5,41.79,29.5z"/>
    <circle fill="#fff" cx="41.69" cy="46.06" r="3.23"/>
    <path fill="#fff" d="M39.17,35.35h-4.04c-2.32,0-4.14-1.82-4.14-4.14v-0.3c0-2.32,1.82-4.14,4.14-4.14h4.04 c2.32,0,4.14,1.82,4.14,4.14v0.3C43.31,33.53,41.49,35.35,39.17,35.35z"/>

    <circle fill="#fff" cx="22.91" cy="32.93" r="1.92"/>
    <circle fill="#fff" cx="27.56" cy="32.93" r="1.31"/>
    <circle fill="#fff" cx="18.37" cy="32.93" r="1.31"/>
</svg>
